<svg width="84" height="42" viewBox="0 0 84 42" fill="none" xmlns="http://www.w3.org/2000/svg">
    <path d="M0 9.14203L5.08619 18.2333V23.7787L0.00594999 32.8521L0 9.14203Z" fill="#5B57A2"/>
    <path d="M19.5289 14.9252L24.2948 12.0041L34.0486 11.995L19.5289 20.8899V14.9252Z" fill="#D90751"/>
    <path d="M19.502 9.08844L19.5289 21.1249L14.4308 17.9924V0L19.5023 9.08844H19.502Z" fill="#FAB718"/>
    <path d="M34.0486 11.9948L24.2945 12.0039L19.502 9.08844L14.4308 0L34.0483 11.9948H34.0486Z" fill="#ED6F26"/>
    <path d="M19.5289 32.9024V27.0627L14.4308 23.9897L14.4336 42L19.5289 32.9024Z" fill="#63B22F"/>
    <path d="M24.283 30.008L5.08584 18.2333L0 9.14203L34.028 29.9961L24.2826 30.008H24.283Z" fill="#1487C9"/>
    <path d="M14.4341 42L19.5287 32.9025L24.2827 30.008L34.0278 29.9961L14.4341 42Z" fill="#017F36"/>
    <path d="M0.00598145 32.8519L14.4725 23.9899L9.60892 21.0058L5.08623 23.7785L0.00598145 32.8519Z" fill="#984995"/>
    <path fill-rule="evenodd" clip-rule="evenodd" d="M55.6098 22.4277C58.8921 22.4277 61.3294 20.4152 61.3294 17.3643C61.3294 14.4112 59.5312 12.494 56.5256 12.494C55.1386 12.494 53.9941 12.9821 53.1321 13.8247C53.3379 12.0836 54.8103 10.8121 56.4315 10.8121C56.8057 10.8121 59.6225 10.8063 59.6225 10.8063L61.2154 7.75812C61.2154 7.75812 57.679 7.83878 56.035 7.83878C52.2788 7.90406 49.7417 11.3183 49.7417 15.4649C49.7417 20.2962 52.2161 22.4277 55.6098 22.4277ZM55.6298 15.1939C56.8485 15.1939 57.6932 15.9947 57.6932 17.364C57.6932 18.5961 56.9426 19.6116 55.6298 19.6144C54.3738 19.6144 53.5289 18.6734 53.5289 17.3848C53.5289 16.0152 54.3738 15.1939 55.6298 15.1939ZM74.0036 11.7923V22.0606H70.3369V14.8576H66.8065V22.0606H63.1399V11.7917L74.0036 11.7923ZM44.598 19.2165C45.8913 19.1222 46.7571 18.6228 46.7571 18.6228L48.114 21.1333C47.245 21.6915 45.8192 22.0544 44.7856 22.0927C41.0879 22.1607 38.5157 19.9107 38.5157 16.6325C38.5157 13.3957 41.2523 11.092 44.7856 11.092C46.1856 11.092 47.3892 11.4676 48.2929 12.1526C48.1027 12.4896 47.8442 12.9565 47.5984 13.4032L47.2048 14.1203L46.8468 14.7752C46.8468 14.7752 45.5447 14.093 44.5605 14.093C42.9555 14.093 41.7865 15.0257 41.7865 16.653C41.7865 18.3217 43.1111 19.2606 44.598 19.2165ZM41.7875 28.971C41.6756 29.1139 41.5283 29.2219 41.3516 29.2947C41.1701 29.3685 40.9761 29.4061 40.7803 29.4051C40.5856 29.4078 40.392 29.3754 40.2088 29.3094C40.0442 29.2496 39.8938 29.1563 39.767 29.0356C39.6419 28.9146 39.5436 28.7687 39.4787 28.607C39.4083 28.4303 39.3733 28.2413 39.3755 28.0509C39.3755 27.8619 39.4079 27.6869 39.4755 27.5211C39.5402 27.355 39.6344 27.2125 39.7523 27.0929C39.8058 27.0375 39.8641 26.9879 39.9266 26.9435L39.9649 26.9175C40.0051 26.8912 40.0469 26.8666 40.0903 26.844L40.137 26.8208L40.1707 26.8047C40.3327 26.7347 40.5094 26.6967 40.7037 26.6967C40.9129 26.6967 41.1072 26.723 41.2839 26.7753C41.3955 26.8081 41.4963 26.855 41.5866 26.9158C41.6395 26.9517 41.6888 26.9924 41.7344 27.0378L41.5196 27.4018C41.4155 27.3075 41.2931 27.2361 41.16 27.1916C41.0335 27.151 40.9013 27.1305 40.7685 27.1308C40.6507 27.1308 40.5388 27.154 40.4299 27.1978C40.3228 27.2409 40.2247 27.3041 40.1413 27.3844C40.0558 27.4664 39.9887 27.5659 39.9437 27.6756C39.8938 27.7888 39.8702 27.9142 39.8702 28.054C39.8702 28.1965 39.8965 28.3247 39.9466 28.4354C39.997 28.5489 40.0645 28.6453 40.15 28.7266C40.2353 28.8083 40.3354 28.8692 40.4503 28.9102C40.4971 28.928 40.5449 28.942 40.5938 28.9522C40.6651 28.9673 40.7389 28.9745 40.8156 28.9745C40.9746 28.9745 41.1192 28.942 41.2427 28.8808C41.3075 28.8494 41.3688 28.8118 41.4259 28.7683C41.4765 28.7297 41.5237 28.6867 41.5667 28.6395L41.7875 28.971ZM42.3942 29.3439V26.7521H42.8596V28.6832L44.3734 26.7521H44.8389V29.3443H44.3734V27.4135L42.8596 29.3443L42.3942 29.3439ZM47.9224 28.971C47.8079 29.1153 47.6577 29.2267 47.4866 29.2947C47.3827 29.3368 47.2746 29.3672 47.1643 29.3853C47.0821 29.3986 46.9987 29.4055 46.9152 29.4051C46.8371 29.4061 46.7591 29.4017 46.6821 29.3914C46.5669 29.3764 46.4536 29.3491 46.3439 29.3094C46.3063 29.2957 46.2693 29.2804 46.2333 29.2633C46.1897 29.2424 46.1473 29.2192 46.1063 29.1939C46.0332 29.1484 45.9646 29.0954 45.9019 29.0356C45.7766 28.9146 45.6784 28.7687 45.6134 28.607C45.5432 28.4303 45.508 28.2413 45.5102 28.0509C45.5102 27.8619 45.5427 27.6869 45.6104 27.5211C45.6755 27.355 45.7695 27.2125 45.8872 27.0929C46.0051 26.9705 46.1465 26.8775 46.3054 26.8047C46.4732 26.7309 46.6551 26.694 46.8384 26.6967C46.9601 26.6967 47.0765 26.7056 47.1874 26.7234L47.2525 26.7347C47.2771 26.7394 47.3016 26.7449 47.3257 26.7507L47.3686 26.7613L47.4188 26.7753C47.5955 26.8276 47.7456 26.9151 47.8695 27.0378L47.6543 27.4018C47.5506 27.3075 47.4282 27.2361 47.2952 27.1916C47.2633 27.1814 47.231 27.1722 47.1983 27.1643C47.176 27.1592 47.1534 27.1547 47.1307 27.1506C47.1093 27.1469 47.0878 27.1434 47.0662 27.1407L47.0187 27.1356C46.9804 27.1322 46.942 27.1305 46.9035 27.1308C46.6696 27.1315 46.4449 27.2224 46.276 27.3844C46.2541 27.4059 46.2335 27.4282 46.214 27.4517C46.1909 27.4794 46.1695 27.5088 46.1501 27.5392C46.1224 27.5827 46.0984 27.6281 46.0786 27.6756C46.0677 27.7002 46.0581 27.7255 46.0497 27.7515C46.04 27.7812 46.032 27.8117 46.0255 27.8428C46.0118 27.9094 46.0051 27.9795 46.0051 28.054C46.0051 28.1213 46.0109 28.1852 46.0224 28.2457C46.0292 28.2816 46.0379 28.3158 46.0485 28.349C46.0581 28.379 46.0692 28.4078 46.0817 28.4354C46.1133 28.5072 46.1519 28.5722 46.1976 28.6306C46.2242 28.6648 46.2533 28.6966 46.2847 28.7266C46.3702 28.8083 46.4707 28.8692 46.5853 28.9102C46.7002 28.9509 46.821 28.9745 46.9504 28.9745C47.0047 28.9745 47.057 28.9707 47.1074 28.9632C47.2045 28.9492 47.2942 28.9211 47.3774 28.8808C47.4998 28.8217 47.6099 28.7396 47.7015 28.6395L47.9224 28.971ZM48.1639 26.7521H50.5495V27.2125H49.5894V29.3439H49.124V27.2125H48.1639V26.7521ZM53.1796 29.0616C53.0501 29.1778 52.9 29.2626 52.7231 29.318C52.5528 29.373 52.375 29.4014 52.1961 29.4024C52.1243 29.4034 52.0527 29.3996 51.9816 29.3914C51.857 29.3767 51.7343 29.3484 51.6159 29.3063C51.4419 29.2424 51.2949 29.1518 51.1741 29.0326C51.0507 28.9116 50.9543 28.7656 50.8913 28.6046C50.8265 28.4385 50.7911 28.2522 50.7911 28.0482C50.7894 27.8674 50.8204 27.6879 50.8826 27.5184C50.9391 27.3588 51.0283 27.2132 51.1444 27.0901C51.1998 27.033 51.2603 26.9811 51.325 26.9353C51.4 26.8823 51.4807 26.8375 51.5658 26.8017C51.6629 26.7613 51.768 26.7316 51.8816 26.7138C51.9642 26.7008 52.0512 26.694 52.1429 26.694C52.1969 26.6936 52.2508 26.6967 52.3039 26.7032C52.3521 26.709 52.4 26.7176 52.4471 26.7285C52.5047 26.7422 52.5616 26.76 52.6172 26.7815C52.7616 26.8351 52.8939 26.9172 53.006 27.0231C53.0347 27.0508 53.0617 27.0795 53.0872 27.11C53.1082 27.1349 53.1282 27.1605 53.147 27.1872C53.1759 27.2279 53.2022 27.2709 53.2254 27.315C53.2398 27.3424 53.2529 27.3704 53.2651 27.3988C53.2917 27.4589 53.3129 27.5215 53.3286 27.5868C53.351 27.6794 53.3623 27.7778 53.3623 27.8824C53.3623 28.0017 53.3536 28.1036 53.3329 28.1938H51.3184C51.339 28.4389 51.4303 28.6306 51.5979 28.7677C51.7659 28.9047 51.978 28.9714 52.2342 28.9714C52.3215 28.9714 52.4051 28.9645 52.4842 28.9509C52.5599 28.9379 52.6319 28.9187 52.6997 28.8931C52.838 28.8405 52.9528 28.7766 53.0383 28.7007L53.1796 29.0616ZM52.1223 27.1281C51.8808 27.1281 51.6894 27.192 51.5451 27.3229C51.4024 27.4517 51.3115 27.6278 51.289 27.8182H52.8793C52.8674 27.6028 52.7971 27.434 52.6644 27.3116C52.6423 27.2911 52.6189 27.2726 52.5943 27.2559C52.571 27.2398 52.5466 27.2255 52.521 27.2125C52.5017 27.2026 52.4815 27.1937 52.4606 27.1855C52.3624 27.1472 52.2492 27.1281 52.1223 27.1281ZM53.9955 26.7521H54.4196L55.4269 28.0366L56.381 26.7521H56.7934V29.3443H56.3282V27.4541L55.4209 28.6569H55.4032L54.461 27.4538V29.3439H53.9955V26.7521ZM57.8562 26.8304C57.9222 26.8023 57.9902 26.7791 58.0596 26.761C58.2098 26.7203 58.3659 26.6971 58.5311 26.6971C58.6919 26.6971 58.8322 26.7145 58.9517 26.7494C59.0315 26.7726 59.1021 26.8037 59.1631 26.8423C59.2214 26.8789 59.2709 26.9226 59.3116 26.9736C59.3772 27.0539 59.4282 27.1493 59.4647 27.2593C59.5119 27.4012 59.5351 27.5673 59.5351 27.7573V29.3474H59.0995V29.0124C59.0228 29.1115 58.9168 29.1987 58.784 29.2745C58.6518 29.3501 58.4778 29.388 58.2599 29.388C58.102 29.388 57.9644 29.3583 57.847 29.2988C57.8214 29.2858 57.7968 29.2715 57.773 29.2557C57.757 29.2448 57.7412 29.2332 57.726 29.2212C57.7091 29.2079 57.6927 29.1935 57.6768 29.1785C57.5297 29.0387 57.4558 28.8405 57.4558 28.5872C57.4545 28.4652 57.4806 28.3449 57.5326 28.2345C57.5811 28.134 57.6515 28.0454 57.7387 27.9757C57.8241 27.9057 57.9301 27.853 58.0536 27.8182C58.0781 27.8113 58.1028 27.8048 58.1278 27.799L58.1654 27.7908L58.2076 27.7833C58.2842 27.77 58.3633 27.7628 58.4457 27.7628C58.5585 27.7641 58.6707 27.7758 58.7813 27.798C58.8956 27.8178 59.0042 27.8626 59.0995 27.9292C59.0995 27.8776 59.0983 27.8277 59.0959 27.7795L59.0913 27.7088C59.0882 27.6705 59.0841 27.6332 59.0788 27.597C59.0642 27.4952 59.0375 27.408 58.9963 27.3379C58.9768 27.3051 58.9536 27.2747 58.9262 27.248C58.9134 27.2354 58.8997 27.2234 58.885 27.2125C58.8751 27.2053 58.8647 27.1981 58.8538 27.1916C58.842 27.1845 58.8297 27.178 58.8167 27.1718C58.7372 27.1311 58.634 27.1103 58.5045 27.1103C58.3424 27.1103 58.2069 27.1281 58.101 27.166L58.0446 27.1869L57.9969 27.205L57.941 27.2279C57.8882 27.2501 57.8356 27.274 57.7828 27.3L57.6592 26.9326C57.7223 26.8936 57.7882 26.8594 57.8562 26.8304ZM58.4223 28.9714C58.593 28.9714 58.7316 28.9369 58.8377 28.861C58.9332 28.7974 59.0204 28.7219 59.0966 28.6364V28.3073C59.0452 28.2704 58.9903 28.2396 58.932 28.2146C58.8994 28.2006 58.8657 28.1887 58.831 28.1787C58.8069 28.1719 58.7823 28.1658 58.7572 28.1603C58.7285 28.1541 58.6991 28.1494 58.669 28.1456C58.6173 28.1391 58.5634 28.1357 58.5077 28.1357C58.437 28.1357 58.3694 28.1442 58.3014 28.1617C58.2678 28.1699 58.235 28.1811 58.2035 28.1955C58.1753 28.2081 58.148 28.2232 58.122 28.2406C58.0719 28.2755 58.0278 28.3192 57.9952 28.3746L57.9885 28.3866C57.9836 28.3958 57.9791 28.405 57.9752 28.4146C57.9707 28.4252 57.967 28.4361 57.9637 28.4474C57.9607 28.4577 57.9581 28.4683 57.9559 28.4792C57.9506 28.5055 57.948 28.5335 57.948 28.5636C57.948 28.686 57.9892 28.7851 58.0719 28.8606C58.1194 28.9027 58.1787 28.9331 58.2493 28.9512C58.3009 28.9645 58.3587 28.9714 58.4223 28.9714ZM63.9091 25.6166C63.8266 25.7243 63.7384 25.7971 63.6442 25.8405C63.5497 25.8843 63.4468 25.9137 63.3349 25.9369C63.2508 25.9543 63.163 25.9704 63.0709 25.9871L62.9786 26.0042C62.839 26.0299 62.7033 26.074 62.5749 26.1351C62.5262 26.156 62.4796 26.1813 62.4356 26.2103C62.4042 26.2312 62.3741 26.2538 62.3456 26.2784L62.3112 26.3095L62.2904 26.3303L62.2687 26.3532C62.2528 26.372 62.2374 26.3912 62.2227 26.4106C62.1933 26.4493 62.1663 26.4892 62.1417 26.5309C62.1169 26.573 62.0945 26.6167 62.0745 26.6622C62.0241 26.7753 61.986 26.8953 61.9593 27.0204C61.933 27.1458 61.9183 27.2679 61.9093 27.3871H61.9212C61.9624 27.2942 62.0212 27.2125 62.092 27.1393C62.1642 27.0655 62.2464 27.0019 62.3363 26.9503C62.356 26.9391 62.3758 26.9281 62.396 26.9175C62.4187 26.9059 62.4418 26.895 62.4652 26.8847C62.5189 26.8611 62.5742 26.8413 62.631 26.8252C62.7371 26.7962 62.846 26.7815 62.9579 26.7815C63.0673 26.7801 63.1761 26.7921 63.2821 26.817C63.344 26.8317 63.4048 26.8509 63.4643 26.8745C63.6107 26.9326 63.7425 27.0225 63.8503 27.137C63.958 27.2538 64.0404 27.3916 64.0918 27.5416C64.1479 27.6992 64.1773 27.8766 64.1773 28.0714C64.1773 28.2522 64.1448 28.4238 64.0771 28.5841C64.0493 28.6532 64.0158 28.7191 63.9771 28.7813C63.9264 28.8634 63.8671 28.9386 63.8003 29.0066C63.6793 29.1296 63.535 29.2274 63.3761 29.2947C63.2113 29.3648 63.0286 29.4027 62.8313 29.4027C62.6163 29.4027 62.4249 29.3648 62.254 29.2892C62.0832 29.2137 61.9387 29.1084 61.818 28.9686C61.6972 28.8316 61.6063 28.6631 61.5412 28.4618C61.4764 28.2608 61.4441 28.0369 61.4441 27.7891C61.4441 27.597 61.4557 27.3964 61.4795 27.1865C61.5025 26.9808 61.549 26.7788 61.6177 26.5836C61.6856 26.3912 61.7857 26.2165 61.9125 26.0623C62.0391 25.9079 62.2068 25.7858 62.4161 25.6953L62.4618 25.6754C62.4842 25.6662 62.5067 25.6573 62.5295 25.6491C62.5708 25.6341 62.6125 25.6204 62.6547 25.6081C62.68 25.6009 62.7055 25.5941 62.7311 25.5879C62.7632 25.5801 62.7957 25.5732 62.8284 25.5674L62.9895 25.5397L63.0758 25.5247L63.164 25.509C63.2158 25.5001 63.2671 25.4881 63.3175 25.4731C63.3571 25.4615 63.3963 25.4481 63.4349 25.4331C63.4562 25.4249 63.4771 25.4143 63.4973 25.4023L63.5236 25.3852C63.5711 25.3521 63.6152 25.3077 63.6558 25.2526L63.9091 25.6166ZM61.9419 27.8766C61.9392 28.0304 61.961 28.1839 62.0065 28.3308C62.0455 28.4553 62.1063 28.5715 62.1861 28.6747C62.2623 28.767 62.3579 28.8415 62.4661 28.8931C62.5749 28.9454 62.693 28.9717 62.8224 28.9717C62.9203 28.9717 63.0102 28.9584 63.0939 28.9314L63.1244 28.9211C63.1408 28.9153 63.157 28.9088 63.1731 28.9016C63.2749 28.8586 63.367 28.795 63.4439 28.7157C63.5208 28.6361 63.581 28.5417 63.6208 28.4385C63.6617 28.3339 63.6856 28.2201 63.6856 28.095C63.6856 27.8417 63.6148 27.6319 63.4702 27.4634C63.4219 27.4073 63.3665 27.3608 63.3038 27.3236C63.2524 27.2928 63.196 27.2685 63.1346 27.2504C63.0483 27.2251 62.9523 27.2125 62.846 27.2125C62.6262 27.2108 62.4122 27.2836 62.2393 27.4193C62.1627 27.4808 62.0979 27.5505 62.0479 27.6291C62.0304 27.6551 62.0147 27.6821 62.0009 27.7101C61.9898 27.7327 61.9797 27.7556 61.971 27.7788C61.959 27.8106 61.9493 27.8434 61.9419 27.8766ZM67.2815 26.7524H67.747V29.3446H67.2815V26.7524ZM65.3141 26.7524H64.8485H64.8458V29.3474H65.6911C65.7335 29.3474 65.7741 29.346 65.8134 29.3436C65.8382 29.3422 65.8623 29.3402 65.8859 29.3378C65.9071 29.3357 65.9279 29.3333 65.9483 29.3303C66.0448 29.3166 66.1315 29.2947 66.2094 29.266C66.2422 29.2537 66.2735 29.2407 66.3032 29.2267L66.3413 29.2076L66.3714 29.1915C66.3926 29.1792 66.4129 29.1662 66.4323 29.1525C66.4447 29.144 66.4567 29.1351 66.4683 29.1262C66.4825 29.1149 66.4962 29.1033 66.5093 29.0913C66.5218 29.0801 66.5338 29.0681 66.5451 29.0561C66.6276 28.9686 66.6896 28.8726 66.725 28.7622C66.7476 28.6966 66.7631 28.6309 66.7718 28.5643C66.778 28.5182 66.7809 28.4713 66.7809 28.4238C66.7809 28.3989 66.78 28.3743 66.7783 28.3496C66.777 28.3281 66.7749 28.3069 66.7723 28.2857C66.7641 28.2187 66.7501 28.1535 66.7308 28.0889C66.6983 27.9815 66.6423 27.8855 66.5628 27.8038C66.4834 27.7221 66.3774 27.6555 66.2448 27.6056C66.112 27.5563 65.9472 27.53 65.7442 27.53H65.3141V26.7524ZM65.6528 28.9133H65.3141V27.9638V27.9576H65.6588C65.7022 27.9576 65.7432 27.959 65.782 27.9621C65.8415 27.9668 65.8953 27.9754 65.9437 27.9873C65.9801 27.9962 66.0132 28.0075 66.0433 28.0205C66.0814 28.0372 66.1142 28.0571 66.1419 28.0803C66.1732 28.1077 66.1995 28.1388 66.2207 28.1743C66.2441 28.2133 66.2615 28.2574 66.2723 28.3062C66.2814 28.3469 66.286 28.391 66.286 28.4385C66.286 28.593 66.2391 28.7092 66.1446 28.7909C66.1035 28.8265 66.0489 28.8545 65.9811 28.8746C65.8936 28.9003 65.7839 28.9133 65.6528 28.9133ZM70.8249 28.971C70.7129 29.1139 70.5656 29.2219 70.3889 29.2947C70.2074 29.3682 70.0134 29.4058 69.8176 29.4051C69.6229 29.4078 69.4293 29.3754 69.2461 29.3094C69.0815 29.2496 68.9311 29.1563 68.8043 29.0356C68.7563 28.9891 68.7122 28.9389 68.6724 28.8856L68.6401 28.8401C68.6285 28.823 68.6174 28.8056 68.6066 28.7878L68.5917 28.7629C68.582 28.7461 68.5728 28.729 68.5639 28.7116C68.5519 28.6887 68.5406 28.6655 68.53 28.6415L68.5157 28.607C68.4456 28.4303 68.4106 28.2413 68.4128 28.0509C68.4128 27.8619 68.4449 27.6869 68.5128 27.5211C68.5775 27.355 68.6717 27.2125 68.7896 27.0929C68.9075 26.9705 69.0487 26.8775 69.208 26.8047C69.3758 26.7309 69.5576 26.694 69.741 26.6967C69.9499 26.6967 70.1445 26.723 70.3212 26.7753C70.4981 26.8276 70.6481 26.9151 70.7717 27.0378L70.5569 27.4018C70.5133 27.3622 70.4665 27.3267 70.4169 27.2955C70.3925 27.2802 70.3674 27.2658 70.3416 27.2525C70.3214 27.2422 70.3009 27.2327 70.2799 27.2234L70.2406 27.2074L70.1973 27.1916C70.0709 27.151 69.9386 27.1305 69.8058 27.1308C69.7585 27.1308 69.712 27.1346 69.6662 27.1417C69.5983 27.1527 69.5322 27.1718 69.4669 27.1978C69.3597 27.2409 69.2618 27.3044 69.1786 27.3844C69.1512 27.4111 69.1258 27.4394 69.1024 27.4692L69.0819 27.4962C69.0415 27.5519 69.0077 27.6121 68.981 27.6756C68.9311 27.7888 68.9075 27.9142 68.9075 28.054C68.9075 28.1965 68.9339 28.3247 68.9839 28.4354C69.034 28.5489 69.1019 28.6453 69.1873 28.7266C69.2726 28.8083 69.3727 28.8692 69.4876 28.9102C69.6028 28.9509 69.7234 28.9745 69.853 28.9745C69.9487 28.9745 70.0379 28.9628 70.1214 28.9399C70.1425 28.9341 70.1631 28.9276 70.1835 28.9204C70.2166 28.9092 70.2488 28.8958 70.28 28.8808C70.4024 28.8217 70.5125 28.7396 70.6041 28.6395L70.8249 28.971ZM71.0663 26.7521H73.4521V27.2125H72.4916V29.3439H72.0264V27.2125H71.0663V26.7521ZM73.9584 26.7528H74.424V27.0583C74.5122 26.9531 74.6388 26.8693 74.801 26.7993C74.963 26.7292 75.1337 26.6943 75.3161 26.6943C75.3456 26.6936 75.375 26.6943 75.4044 26.696C75.4637 26.6995 75.5225 26.707 75.5804 26.7186C75.6623 26.735 75.7425 26.76 75.8197 26.7931C75.9651 26.8539 76.0952 26.9466 76.1998 27.0642C76.3066 27.1848 76.3886 27.3253 76.4414 27.4774C76.4686 27.5553 76.4895 27.637 76.5038 27.7228C76.519 27.8137 76.5267 27.9087 76.5267 28.0079C76.5267 28.2027 76.4942 28.3866 76.4295 28.5578C76.3647 28.7297 76.2733 28.8753 76.1526 29.0011C76.0299 29.1262 75.884 29.226 75.7228 29.2951C75.5548 29.3648 75.3692 29.4024 75.1631 29.4024C75.0245 29.4024 74.8892 29.388 74.7596 29.359C74.6301 29.3299 74.5181 29.2862 74.424 29.225V30.4975H73.9584V26.7528ZM75.1811 27.1281C75.0249 27.1281 74.8806 27.1633 74.748 27.2333C74.6157 27.3031 74.5065 27.3875 74.4243 27.4863V28.7707C74.5298 28.8415 74.6461 28.8948 74.7687 28.9283C74.8806 28.9574 74.9987 28.9717 75.125 28.9717C75.2554 28.9741 75.3848 28.9492 75.5051 28.8989C75.6129 28.8548 75.7103 28.7882 75.7906 28.7037C75.8706 28.6183 75.932 28.5171 75.9706 28.4067C76.0116 28.2902 76.0354 28.1651 76.0354 28.0253C76.0354 27.9959 76.0345 27.9668 76.0326 27.9385L76.0287 27.8923L76.0249 27.8595L76.0198 27.8257L76.0138 27.7932L76.0056 27.7553C75.9983 27.7242 75.9896 27.6937 75.9793 27.664C75.9439 27.5536 75.8881 27.4603 75.8146 27.3786C75.7406 27.2973 75.6524 27.2361 75.5464 27.1923C75.4372 27.1486 75.3164 27.1281 75.1811 27.1281ZM79.6309 26.7524H80.0964V29.3443H79.6309V26.7524ZM77.6608 26.7524H77.1953H77.1925V29.347H78.0376C78.2439 29.347 78.4146 29.318 78.5561 29.266C78.6975 29.2134 78.8094 29.1436 78.8918 29.0561C78.9743 28.9686 79.0362 28.8726 79.0716 28.7619C79.1097 28.6515 79.1273 28.5404 79.1273 28.4238C79.1273 28.3073 79.1097 28.1969 79.0772 28.0889C79.0451 27.9815 78.989 27.8851 78.9095 27.8038C78.8301 27.7221 78.7241 27.6551 78.5913 27.6056C78.4587 27.5563 78.294 27.53 78.0906 27.53H77.6608V26.7524ZM78.0028 28.9133H77.6639V27.9638V27.9576H78.0086C78.2323 27.9576 78.3943 27.9986 78.4917 28.0803C78.5859 28.162 78.6358 28.2809 78.6358 28.4385C78.6358 28.593 78.5886 28.7092 78.4944 28.7906C78.4003 28.8726 78.2352 28.9133 78.0028 28.9133ZM82.329 28.0017L83.3244 29.3443H82.7532L81.9843 28.2956L81.2038 29.3443H80.6619L81.6514 28.0246L80.7207 26.7521H81.2924L82.0021 27.7307L82.7235 26.7521H83.2656L82.329 28.0017ZM41.4432 32.5476H40.0148V34.7088H39.5493V32.1169H41.9084V34.7088H41.4432V32.5476ZM44.5501 32.5766H43.6314L43.6016 33.0135C43.5813 33.2462 43.5563 33.4499 43.5252 33.6256C43.5068 33.7292 43.4863 33.8232 43.4634 33.9076C43.4013 34.1349 43.3248 34.3096 43.2366 34.4319C43.1484 34.5543 43.045 34.6387 42.9271 34.6797C42.8054 34.7238 42.6767 34.7453 42.5473 34.7436L42.512 34.2949C42.562 34.2976 42.6208 34.2863 42.6856 34.2573C42.7507 34.2282 42.8155 34.1639 42.877 34.0682C42.939 33.9688 42.9951 33.829 43.045 33.6485C43.0951 33.465 43.1277 33.2264 43.1451 32.926L43.1925 32.1193H45.0156V34.7115H44.5501V32.5766ZM45.8694 32.2943C45.9843 32.2215 46.1198 32.1634 46.2702 32.1227C46.4237 32.0804 46.5821 32.0588 46.7414 32.0588C47.1124 32.0588 47.3745 32.1514 47.5219 32.3353C47.6719 32.5189 47.7459 32.781 47.7459 33.1187V34.7088H47.3098V34.3738C47.233 34.4729 47.1271 34.5604 46.9948 34.636C46.862 34.7118 46.6886 34.7498 46.4705 34.7498C46.229 34.7498 46.0344 34.6797 45.8874 34.5399C45.8065 34.4637 45.7481 34.3697 45.7115 34.2586C45.6815 34.1667 45.6664 34.0635 45.6664 33.949C45.6662 33.9305 45.6666 33.912 45.6676 33.8936C45.6698 33.8529 45.6751 33.8129 45.6835 33.7736C45.6963 33.7124 45.7161 33.653 45.7428 33.5962C45.7913 33.4957 45.8617 33.4072 45.9489 33.3375C45.9954 33.2992 46.0479 33.2664 46.106 33.2387C46.1548 33.2155 46.2076 33.196 46.2642 33.1799C46.3878 33.1447 46.5177 33.1245 46.6559 33.1245C46.7687 33.1259 46.881 33.1375 46.9916 33.1594C47.0339 33.1669 47.0755 33.1779 47.1158 33.1919C47.1845 33.2158 47.2498 33.249 47.3098 33.2903C47.3098 33.171 47.3038 33.0606 47.2891 32.9584C47.2812 32.9044 47.2701 32.8545 47.2553 32.8091C47.2476 32.7858 47.239 32.7636 47.2294 32.7428C47.2224 32.7277 47.2149 32.713 47.2069 32.6993C47.1655 32.6293 47.1067 32.5712 47.0269 32.5332C46.9751 32.5069 46.9136 32.4888 46.841 32.4796L46.8054 32.4758C46.7767 32.4734 46.7465 32.4721 46.7147 32.4721C46.553 32.4721 46.4172 32.4898 46.3112 32.5274C46.2804 32.5384 46.2497 32.55 46.2189 32.5619C46.1439 32.5913 46.0687 32.6242 45.9933 32.6614L45.8694 32.2943ZM46.6356 34.3331C46.7424 34.3331 46.8366 34.3195 46.9179 34.2908C46.9668 34.2733 47.011 34.2508 47.0507 34.2221C47.1464 34.1588 47.2335 34.0833 47.3101 33.9978V33.6687C47.1481 33.5525 46.9505 33.4974 46.721 33.4974C46.6942 33.4974 46.6674 33.4985 46.6407 33.5009C46.5983 33.505 46.5563 33.5125 46.5149 33.5231C46.4469 33.5409 46.3854 33.5668 46.3353 33.602C46.2852 33.6369 46.2408 33.6806 46.2087 33.736C46.176 33.7914 46.1613 33.8526 46.1613 33.9254C46.1613 34.0474 46.2027 34.1465 46.2852 34.2221C46.3676 34.2952 46.4823 34.3331 46.6356 34.3331ZM48.2051 32.1169H50.5908V32.577H49.6304V34.7088H49.1652V32.5773H48.2051V32.1169ZM52.9747 34.5963C52.9091 34.6305 52.8392 34.6592 52.7645 34.6825C52.5878 34.7378 52.4111 34.7672 52.2371 34.7672C52.0395 34.7696 51.8432 34.7371 51.6571 34.6708C51.4833 34.6069 51.3358 34.5163 51.2151 34.3971C51.0943 34.2778 50.9974 34.1349 50.9323 33.9691C50.8675 33.8027 50.8322 33.6167 50.8322 33.4127C50.8306 33.2319 50.8615 33.0524 50.9236 32.8826C50.9501 32.8084 50.9836 32.7373 51.0236 32.67C51.0694 32.5927 51.1237 32.5202 51.1857 32.4546C51.3052 32.3309 51.4486 32.2328 51.6072 32.1661C51.7748 32.0961 51.9662 32.0585 52.1843 32.0585C52.3465 32.0575 52.5073 32.0872 52.6585 32.146C52.803 32.1996 52.9351 32.282 53.047 32.3876C53.1579 32.4943 53.2461 32.6221 53.3064 32.7633C53.3712 32.9089 53.4037 33.0692 53.4037 33.2466C53.4037 33.3662 53.3946 33.4684 53.3743 33.5583H51.3597C51.3804 33.803 51.4713 33.9954 51.6393 34.1322C51.8073 34.2689 52.0194 34.3359 52.2756 34.3359C52.4465 34.3359 52.6025 34.3099 52.7407 34.2576C52.8793 34.205 52.9942 34.141 53.0796 34.0648L53.221 34.4261C53.1461 34.4931 53.0644 34.5498 52.9747 34.5963ZM52.1609 32.4895C51.9192 32.4895 51.7278 32.5537 51.5836 32.6847C51.4411 32.8132 51.35 32.9892 51.3274 33.1799H52.9178C52.906 32.9642 52.8353 32.7954 52.703 32.673C52.5704 32.5537 52.3907 32.4895 52.1609 32.4895ZM54.2195 32.1169H53.6304L54.5933 33.3662L53.5863 34.7088H54.1575L55.1176 33.3665L54.2195 32.1169ZM55.698 32.1169H55.2324V34.7088H55.698V32.1169ZM56.337 33.3662L57.3618 34.7088H56.7847L55.8126 33.3662L56.7167 32.1166H57.2943L56.337 33.3662ZM59.9448 34.4261C59.8152 34.5423 59.6652 34.6271 59.4883 34.6825C59.3179 34.7371 59.1402 34.7659 58.9613 34.7672C58.7637 34.7696 58.5672 34.7371 58.3811 34.6708C58.2071 34.6069 58.0601 34.5163 57.9393 34.3971C57.8185 34.2778 57.7212 34.1349 57.6565 33.9691C57.5917 33.8027 57.5565 33.6167 57.5565 33.4127C57.5546 33.2319 57.5855 33.0524 57.6477 32.8826C57.7043 32.7233 57.7937 32.5773 57.9099 32.4546C58.0292 32.3309 58.1726 32.2328 58.331 32.1661C58.499 32.0961 58.6904 32.0585 58.9081 32.0585C59.0703 32.0575 59.2311 32.0872 59.3824 32.146C59.5269 32.1996 59.659 32.282 59.7712 32.3876C59.8819 32.4943 59.9699 32.6221 60.0302 32.7633C60.0954 32.9089 60.1275 33.0692 60.1275 33.2466C60.1275 33.3662 60.1188 33.4684 60.0981 33.5583H58.0835C58.1042 33.803 58.1955 33.9954 58.3631 34.1322C58.5311 34.2689 58.7432 34.3359 58.9994 34.3359C59.1703 34.3359 59.3263 34.3099 59.4649 34.2576C59.6032 34.205 59.718 34.141 59.8035 34.0648L59.9448 34.4261ZM58.885 32.4895C58.6436 32.4895 58.452 32.5537 58.3076 32.6847C58.1649 32.8132 58.0738 32.9892 58.0512 33.1799H59.6418C59.6302 32.9642 59.5594 32.7954 59.4268 32.673C59.2942 32.5537 59.1118 32.4895 58.885 32.4895ZM61.6929 31.1271C61.7678 31.2064 61.8756 31.246 62.0157 31.246C62.2748 31.246 62.4192 31.0946 62.4399 30.7918H62.8757C62.8757 30.908 62.855 31.0129 62.8138 31.112C62.7728 31.2112 62.7137 31.2956 62.6402 31.3653C62.6072 31.3954 62.572 31.4234 62.5342 31.4487C62.4843 31.4822 62.4297 31.5109 62.3693 31.5342C62.3093 31.5588 62.2456 31.5759 62.1774 31.5865C62.1251 31.5943 62.0703 31.5981 62.0127 31.5981C61.9571 31.5981 61.9041 31.595 61.8539 31.5889C61.7736 31.5789 61.6999 31.5612 61.6329 31.5342C61.5241 31.4908 61.4296 31.4354 61.3561 31.3653C61.3116 31.3233 61.2735 31.2754 61.2419 31.2224C61.2212 31.1879 61.2033 31.151 61.1881 31.112C61.1667 31.057 61.151 30.9999 61.1412 30.9401C61.1334 30.8926 61.1293 30.8434 61.1293 30.7918H61.5682C61.5796 30.9398 61.6213 31.0515 61.6929 31.1271ZM61.2233 34.7088H60.7579V32.1166H61.2233V34.0474L62.7371 32.1166H63.2026V34.7088H62.7371V32.7776L61.2233 34.7088Z" fill="black"/>
</svg>