<svg width="40" height="40" viewBox="0 0 40 40" fill="none" xmlns="http://www.w3.org/2000/svg">
<rect x="0.714286" y="0.714286" width="38.5714" height="38.5714" fill="#050402"/>
<rect x="0.714286" y="0.714286" width="38.5714" height="38.5714" stroke="#BB8C5F" stroke-width="1.42857"/>
<path d="M25.3176 16.9108C25.2274 16.1761 25.0022 15.5993 24.6022 15.0883C24.0828 14.4304 23.419 14.0364 22.4363 13.8027C21.7959 13.647 21.5372 13.6648 21.3055 13.8769C21.0898 14.0757 21.0477 14.474 21.2125 14.732C21.3285 14.9192 21.4622 14.9863 21.8343 15.0595C22.3297 15.1509 22.6721 15.2695 22.9835 15.448C23.6446 15.8307 23.9524 16.4295 23.9854 17.3989C24.0008 17.854 24.04 17.994 24.1986 18.1554C24.4925 18.4505 25.0156 18.3931 25.2375 18.04C25.3189 17.9069 25.3313 17.8489 25.3399 17.5399C25.3456 17.3485 25.3374 17.0637 25.3176 16.9108Z" fill="#BB8C5F"/>
<path d="M27.9083 17.7393C27.7777 15.4886 26.8996 13.6777 25.328 12.4037C24.4425 11.6878 23.3721 11.1955 22.1989 10.9561C21.7691 10.8705 20.9779 10.8011 20.8421 10.8408C20.714 10.8775 20.5328 11.0166 20.4521 11.1423C20.3667 11.2787 20.3474 11.5832 20.4203 11.7593C20.5379 12.0537 20.7566 12.1577 21.3692 12.2114C22.3136 12.2942 23.2876 12.6269 24.0236 13.1193C24.8639 13.6799 25.5318 14.4468 25.9639 15.3479C26.3372 16.1222 26.5669 17.238 26.5605 18.2371C26.5584 18.5985 26.614 18.8026 26.759 18.9518C26.9778 19.1812 27.2968 19.2314 27.5783 19.079C27.8902 18.9145 27.9632 18.6258 27.9083 17.7393Z" fill="#BB8C5F"/>
<path d="M30.7726 26.4066C30.7287 26.278 30.6262 26.0795 30.553 25.9656C30.0918 25.2674 27.6138 23.3233 26.3766 22.6875C25.6702 22.3237 25.1468 22.2025 24.7588 22.3163C24.3415 22.434 24.1219 22.6287 23.4228 23.4997C23.1409 23.8488 22.8518 24.1759 22.7749 24.2273C22.5846 24.3596 22.2112 24.4663 21.9477 24.4663C21.3364 24.4625 20.2273 24.0656 19.3745 23.5438C18.712 23.1396 17.8628 22.4156 17.2113 21.699C16.4426 20.8574 15.9192 20.115 15.5055 19.2771C14.9712 18.2004 14.8357 17.5425 15.059 17.0611C15.1139 16.9398 15.1871 16.8112 15.22 16.7707C15.253 16.7341 15.5971 16.451 15.9777 16.1423C16.7244 15.547 16.8452 15.411 16.9843 15.0031C17.16 14.4849 17.1124 13.9557 16.8416 13.4229C16.6329 13.0186 16.0875 12.1366 15.6922 11.567C15.1688 10.8173 13.8657 9.21502 13.6058 8.99813C13.1373 8.61597 12.5371 8.54978 11.8745 8.80708C11.1755 9.07903 9.86503 10.1374 9.30499 10.8761C8.79987 11.5449 8.60594 12.019 8.57662 12.6438C8.55102 13.1582 8.59493 13.3714 8.86579 14.0292C10.9851 19.1889 14.1476 23.3086 18.4924 26.5794C20.7617 28.2882 23.1153 29.5892 25.5567 30.4786C26.9806 30.9967 27.5992 31.0224 28.3275 30.5962C28.635 30.4124 29.3964 29.6296 29.8209 29.06C30.5237 28.1118 30.7836 27.6745 30.8568 27.3254C30.9081 27.0865 30.8678 26.6713 30.7726 26.4066Z" fill="#BB8C5F"/>
<path d="M30.5437 18.2559C30.4968 16.9828 30.283 15.9385 29.8371 14.7742C29.3969 13.6289 28.9514 12.8815 28.1101 11.8707C27.3146 10.9229 26.6968 10.3818 25.7169 9.77941C24.3498 8.94012 22.6861 8.38471 20.8216 8.15113C20.1858 8.06949 20.0419 8.07533 19.8468 8.20581C19.4688 8.453 19.4739 9.06955 19.8531 9.31304C19.9786 9.3905 20.09 9.41871 20.5986 9.48545C21.3794 9.59083 21.8814 9.69014 22.4771 9.85309C24.8132 10.4933 26.6096 11.8018 27.8106 13.7443C28.8157 15.3634 29.2329 16.9826 29.1736 19.0506C29.153 19.7497 29.168 19.8728 29.2746 20.0407C29.4788 20.3538 30.0171 20.4158 30.2933 20.156C30.4652 19.9976 30.4976 19.8788 30.5314 19.2804C30.5477 18.9682 30.5511 18.5074 30.5437 18.2559Z" fill="#BB8C5F"/>
</svg>
