<svg width="40" height="40" viewBox="0 0 40 40" fill="none" xmlns="http://www.w3.org/2000/svg">
<rect x="0.5" y="0.5" width="39" height="39" fill="#050402"/>
<rect x="0.5" y="0.5" width="39" height="39" stroke="#BB8C5F"/>
<path fill-rule="evenodd" clip-rule="evenodd" d="M32.4545 19.0443C32.4518 25.6 27.1189 30.9342 20.5619 30.9368H20.557C18.5666 30.9361 16.6108 30.4368 14.8738 29.4893L8.56934 31.1431L10.2565 24.9804C9.21578 23.1768 8.66815 21.131 8.66904 19.0349C8.67165 12.4778 14.0067 7.14307 20.5618 7.14307C23.7432 7.14444 26.7292 8.38296 28.9745 10.6309C31.2198 12.8788 32.4557 15.8667 32.4545 19.0443ZM11.4237 28.3177L15.1648 27.3363L15.5258 27.5505C17.0434 28.4511 18.7831 28.9277 20.5568 28.9284H20.5608C26.009 28.9284 30.4432 24.494 30.4454 19.0436C30.4464 16.4024 29.4192 13.919 27.553 12.0506C25.6868 10.1822 23.2049 9.15269 20.5647 9.15178C15.1124 9.15178 10.6781 13.5857 10.6759 19.0356C10.6752 20.9034 11.1977 22.7223 12.1872 24.2961L12.4222 24.6701L11.4237 28.3177Z" fill="#BB8C5F"/>
<path d="M26.3186 22.6156C26.2443 22.4917 26.0462 22.4173 25.7491 22.2685C25.4519 22.1198 23.991 21.401 23.7185 21.3017C23.4462 21.2026 23.248 21.1531 23.05 21.4504C22.8519 21.7479 22.2824 22.4173 22.1091 22.6156C21.9357 22.8139 21.7624 22.8388 21.4653 22.69C21.1682 22.5413 20.2107 22.2275 19.0756 21.2151C18.1922 20.4271 17.5959 19.454 17.4225 19.1565C17.2492 18.859 17.404 18.6983 17.5528 18.5501C17.6865 18.4169 17.85 18.2029 17.9985 18.0295C18.1471 17.856 18.1966 17.732 18.2957 17.5338C18.3947 17.3354 18.3452 17.1619 18.2709 17.0132C18.1966 16.8644 17.6024 15.4018 17.3547 14.8068C17.1135 14.2273 16.8685 14.3058 16.6861 14.2967C16.513 14.288 16.3147 14.2861 16.1166 14.2861C15.9185 14.2861 15.5966 14.3605 15.3242 14.658C15.0518 14.9555 14.2842 15.6744 14.2842 17.137C14.2842 18.5997 15.349 20.0127 15.4975 20.211C15.6461 20.4094 17.5929 23.4108 20.5738 24.6979C21.2828 25.0041 21.8363 25.1869 22.2679 25.3239C22.9797 25.5501 23.6276 25.5182 24.1395 25.4416C24.7105 25.3563 25.8976 24.7228 26.1453 24.0287C26.3928 23.3345 26.3928 22.7395 26.3186 22.6156Z" fill="#BB8C5F"/>
</svg>
