<svg width="8" height="7" viewBox="0 0 8 7" fill="none" xmlns="http://www.w3.org/2000/svg">
<path d="M4.11223 1.31055C4.40681 1.31055 4.68931 1.42756 4.89761 1.63586C5.1059 1.84415 5.22292 2.12666 5.22292 2.42123C5.22292 2.7158 5.1059 2.99831 4.89761 3.2066C4.68931 3.41489 4.40681 3.53191 4.11223 3.53191C3.81766 3.53191 3.53516 3.41489 3.32686 3.2066C3.11857 2.99831 3.00155 2.7158 3.00155 2.42123C3.00155 2.12666 3.11857 1.84415 3.32686 1.63586C3.53516 1.42756 3.81766 1.31055 4.11223 1.31055ZM4.11223 1.86589C3.96495 1.86589 3.8237 1.9244 3.71955 2.02854C3.6154 2.13269 3.55689 2.27394 3.55689 2.42123C3.55689 2.56852 3.6154 2.70977 3.71955 2.81392C3.8237 2.91806 3.96495 2.97657 4.11223 2.97657C4.25952 2.97657 4.40077 2.91806 4.50492 2.81392C4.60907 2.70977 4.66758 2.56852 4.66758 2.42123C4.66758 2.27394 4.60907 2.13269 4.50492 2.02854C4.40077 1.9244 4.25952 1.86589 4.11223 1.86589ZM4.11223 3.80958C4.85362 3.80958 6.3336 4.17888 6.3336 4.92027V5.75328H1.89087V4.92027C1.89087 4.17888 3.37085 3.80958 4.11223 3.80958ZM4.11223 4.33716C3.28755 4.33716 2.41844 4.74256 2.41844 4.92027V5.2257H5.80603V4.92027C5.80603 4.74256 4.93692 4.33716 4.11223 4.33716Z" fill="#050402"/>
</svg>
